<svg xmlns="http://www.w3.org/2000/svg" width="40" height="40" viewBox="0 0 40 40">
  <path id="Path_241" data-name="Path 241" d="M746.339,444.956c-.384-.586-.71-.661-1.334-.338a14.19,14.19,0,0,0-7.506,9.732c-.133.546-.283.675-.893.514a29.818,29.818,0,0,0-15.32-.044c-.66.171-.9.119-1.079-.582a14.117,14.117,0,0,0-7.6-9.659c-.446-.221-.767-.311-1.109.192a13.689,13.689,0,0,0-2.636,7.795,10.045,10.045,0,0,0,3.829,8.11,2.237,2.237,0,0,1,.913,1.931,45.9,45.9,0,0,0,.878,9.32,22.358,22.358,0,0,0,3.445,8.945,7.882,7.882,0,0,0,4.679,3.333c2.513.582,4.169-.121,5.017-2.179a9.537,9.537,0,0,0,.591-4.531,4.3,4.3,0,0,0-2.593-3.617,6.787,6.787,0,0,1-1.511-1.013c-1.1-.974-1.014-1.709.328-2.34a10.432,10.432,0,0,1,4.984-.842,8.727,8.727,0,0,1,4.25,1.064c.834.5.915,1.078.264,1.794a7.267,7.267,0,0,1-2.087,1.469,4.134,4.134,0,0,0-2.3,3.191,9.165,9.165,0,0,0,.623,4.994,3.482,3.482,0,0,0,3.807,2.169,7.154,7.154,0,0,0,4.711-2.2,16.476,16.476,0,0,0,3.861-7.348,48.55,48.55,0,0,0,1.6-12.635,1.5,1.5,0,0,1,.644-1.3,9.77,9.77,0,0,0,3.265-4.231C749.68,452.459,748.736,448.612,746.339,444.956Zm-24.811,21.992a1.211,1.211,0,1,1,.1-2.416,1.19,1.19,0,0,1,1.2,1.21A1.231,1.231,0,0,1,721.527,466.948Zm14.572.01a1.269,1.269,0,0,1-1.2-1.235,1.2,1.2,0,0,1,1.309-1.185,1.24,1.24,0,0,1,1.225,1.2A1.344,1.344,0,0,1,736.1,466.958Z" transform="translate(-708.866 -444.402)" fill="#ffc125"/>
</svg>
